HIERARCHY
ROOT Hips
{
	OFFSET 0.000000 0.000000 0.000000 
	CHANNELS 6 Xposition Yposition Zposition Zrotation Yrotation Xrotation
	JOINT LeftUpLeg
	{
		OFFSET 1.363060 -1.794630 0.839290 
		CHANNELS 3 Zrotation Yrotation Xrotation
		JOINT LeftLeg
		{
			OFFSET 2.448110 -6.726130 0.000000 
			CHANNELS 3 Zrotation Yrotation Xrotation
			JOINT LeftFoot
			{
				OFFSET 2.562200 -7.039590 0.000000 
				CHANNELS 3 Zrotation Yrotation Xrotation
				JOINT LeftToeBase
				{
					OFFSET 0.157640 -0.433110 2.322550 
					CHANNELS 3 Zrotation Yrotation Xrotation
					End Site
					{
						OFFSET 0.000000 0.000000 0.000000 
					}
				}
			}
		}
	}
	JOINT RightUpLeg
	{
		OFFSET -1.305520 -1.794630 0.839290 
		CHANNELS 3 Zrotation Yrotation Xrotation
		JOINT RightLeg
		{
			OFFSET -2.542530 -6.985550 0.000000 
			CHANNELS 3 Zrotation Yrotation Xrotation
			JOINT RightFoot
			{
				OFFSET -2.568260 -7.056230 0.000000 
				CHANNELS 3 Zrotation Yrotation Xrotation
				JOINT RightToeBase
				{
					OFFSET -0.164730 -0.452590 2.363150 
					CHANNELS 3 Zrotation Yrotation Xrotation
					End Site
					{
						OFFSET 0.000000 0.000000 0.000000 
					}
				}
			}
		}
	}
	JOINT Spine
	{
		OFFSET 0.028270 2.035590 -0.193380 
		CHANNELS 3 Zrotation Yrotation Xrotation
		JOINT Spine1
		{
			OFFSET 0.056720 2.048850 -0.042750 
			CHANNELS 3 Zrotation Yrotation Xrotation
			JOINT Neck1
			{
				OFFSET -0.054170 1.746240 0.172020 
				CHANNELS 3 Zrotation Yrotation Xrotation
				JOINT Head
				{
					OFFSET 0.104070 1.761360 -0.123970 
					CHANNELS 3 Zrotation Yrotation Xrotation
					End Site
					{
						OFFSET 0.000000 0.000000 0.000000 
					}
				}
			}
			JOINT LeftArm
			{
				OFFSET 3.362410 1.200890 -0.311210 
				CHANNELS 3 Zrotation Yrotation Xrotation
				JOINT LeftForeArm
				{
					OFFSET 4.983000 -0.000000 -0.000000 
					CHANNELS 3 Zrotation Yrotation Xrotation
					JOINT LeftHand
					{
						OFFSET 3.483560 -0.000000 -0.000000 
						CHANNELS 3 Zrotation Yrotation Xrotation
						JOINT LeftHandIndex1
						{
							OFFSET 0.715260 -0.000000 -0.000000 
							CHANNELS 3 Zrotation Yrotation Xrotation
							End Site
							{
								OFFSET 0.000000 0.000000 0.000000 
							}
						}
					}
				}
			}
			JOINT RightArm
			{
				OFFSET -3.136600 1.374050 -0.404650 
				CHANNELS 3 Zrotation Yrotation Xrotation
				JOINT RightForeArm
				{
					OFFSET -5.241900 -0.000000 -0.000000 
					CHANNELS 3 Zrotation Yrotation Xrotation
					JOINT RightHand
					{
						OFFSET -3.444170 -0.000000 -0.000000 
						CHANNELS 3 Zrotation Yrotation Xrotation
						JOINT RightHandIndex1
						{
							OFFSET -0.622530 -0.000000 -0.000000 
							CHANNELS 3 Zrotation Yrotation Xrotation
							End Site
							{
								OFFSET 0.000000 0.000000 0.000000 
							}
						}
					}
				}
			}
		}
	}
}
MOTION
Frames: 17
Frame Time: 0.041667
-25.965362 17.830993 3.874660 -179.501510 -1.456325 -174.589655 -11.716464 4.027572 -13.780933 0.460252 10.288604 26.086540 -4.425026 14.558796 -3.100578 0.001100 0.212500 0.583800 -2.408011 7.625248 -6.320660 0.479383 -6.188773 12.241325 7.266853 -27.265149 9.711298 -0.721900 5.429400 -15.137300 -0.826542 3.435496 -3.025831 3.293171 2.230888 2.991745 2.704504 5.427731 -15.126781 -2.370100 0.831100 -4.793400 -76.495684 -8.058934 -7.579810 0.604736 -6.464665 -0.722565 -2.682353 -2.367038 25.061659 -7.125000 0.000000 0.000000 75.945650 4.713222 -0.630259 -4.642381 8.734359 -1.235003 -1.059257 -2.943280 27.542440 7.125000 0.000000 0.000000 
-25.962464 17.839686 3.873546 -179.473585 -1.451214 -174.569848 -11.660546 3.951968 -13.838265 0.488178 10.356301 26.292678 -4.346297 14.354340 -3.324186 0.006500 0.520300 1.429800 -2.368202 7.676788 -6.093460 0.528615 -6.007866 11.692854 7.256240 -27.462601 10.125452 -0.736700 5.483400 -15.292700 -0.813170 3.368136 -3.028721 3.282394 2.201676 2.996537 3.062422 5.454917 -14.945840 -2.207300 0.863800 -4.713500 -76.480040 -7.951245 -7.708537 0.646040 -6.522416 -0.718298 -2.656781 -2.356726 25.209031 -7.125000 0.000000 0.000000 75.952536 4.618902 -0.541127 -4.707887 8.836132 -1.263085 -1.047879 -2.991216 26.888157 7.125000 0.000000 0.000000 
-25.962464 17.846039 3.873769 -179.331994 -1.293632 -174.581019 -11.521023 3.840843 -13.799510 0.498468 10.379928 26.354253 -4.410334 14.500578 -3.381472 0.007800 0.569000 1.563600 -2.247852 7.777565 -6.032910 0.552628 -5.947749 11.520120 7.205714 -27.397112 10.281908 -0.771900 5.609900 -15.656600 -0.806513 3.412843 -3.028139 3.154216 2.230733 2.983551 3.011908 5.395645 -14.868988 -2.260400 0.832300 -4.689500 -76.445336 -7.932355 -7.777657 0.639432 -6.502541 -0.713197 -2.658449 -2.339271 25.318575 -7.125000 0.000000 0.000000 75.934020 4.519377 -0.003555 -4.666516 8.820232 -1.277145 -1.020985 -3.090395 25.924506 7.125000 0.000000 0.000000 
-25.961015 17.845370 3.879007 -179.346142 -1.180209 -174.564260 -11.546233 3.743693 -13.803903 0.505236 10.400195 26.399201 -4.511859 14.744947 -3.405376 0.005300 0.471900 1.296700 -2.287114 7.945291 -5.977614 0.569672 -5.892095 11.363283 7.211253 -27.422381 10.312981 -0.766300 5.590000 -15.599300 -0.834260 3.453666 -3.030485 3.030841 2.251642 2.966034 3.108825 5.224956 -14.774409 -2.222500 0.753100 -4.642400 -76.323970 -7.909037 -7.807299 0.653973 -6.524056 -0.716046 -2.658835 -2.348180 25.412341 -7.125000 0.000000 0.000000 76.130520 4.429983 0.395009 -4.884209 9.085037 -1.305007 -0.940381 -3.038305 25.487618 7.125000 0.000000 0.000000 
-25.961238 17.843587 3.883242 -179.376911 -1.023576 -174.539349 -11.592368 3.539287 -13.766636 0.505979 10.422411 26.449380 -4.648794 15.063531 -3.589432 0.006400 0.516100 1.418300 -2.361305 8.025275 -5.990862 0.579608 -5.840473 11.225395 7.164660 -27.340057 10.477547 -0.766500 5.590900 -15.601800 -0.839616 3.493193 -3.034683 3.004758 2.272174 2.975030 3.179766 5.079210 -14.672167 -2.185100 0.692400 -4.593600 -76.330119 -7.898019 -7.878913 0.673374 -6.548613 -0.718731 -2.647029 -2.363720 25.515786 -7.125000 0.000000 0.000000 76.111494 4.629288 -1.101575 -4.747737 8.886069 -1.286651 -1.103759 -3.007379 26.809712 7.125000 0.000000 0.000000 
-25.959678 17.839129 3.887477 -179.293143 -0.823559 -174.544330 -11.508353 3.471229 -13.774195 0.518927 10.455103 26.530017 -4.782150 15.375481 -3.705987 0.007100 0.545200 1.498000 -2.309100 7.993374 -5.994452 0.604014 -5.747365 10.979258 7.039411 -27.095430 10.778657 -0.783400 5.650500 -15.773600 -0.798195 3.520646 -3.041542 3.065280 2.292750 2.939404 3.246064 4.990692 -14.589937 -2.147900 0.661200 -4.562400 -76.513295 -7.954300 -8.011185 0.650637 -6.494552 -0.718345 -2.652892 -2.361205 25.603090 -7.125000 0.000000 0.000000 75.954143 4.614584 -0.715695 -4.743898 8.893436 -1.287633 -1.037452 -3.049074 26.577960 7.125000 0.000000 0.000000 
-25.959121 17.838572 3.891934 -179.240125 -0.634466 -174.508855 -11.434396 3.279901 -13.743356 0.526139 10.478916 26.602531 -4.805154 15.418921 -3.836344 0.022000 0.958600 2.635000 -2.284493 7.913354 -6.042561 0.621560 -5.661750 10.745274 6.942245 -26.961943 11.127115 -0.823500 5.790100 -16.176700 -0.782882 3.576211 -3.050890 3.070219 2.325111 2.919115 3.398139 4.858701 -14.528224 -2.079100 0.603000 -4.543100 -76.644378 -8.032033 -8.076863 0.613433 -6.421725 -0.718578 -2.685042 -2.348015 25.698659 -7.125000 0.000000 0.000000 75.840848 4.748324 -1.348895 -4.621229 8.730873 -1.277375 -1.070950 -3.104290 27.082221 7.125000 0.000000 0.000000 
-25.958563 17.851388 3.890820 -179.232819 -0.583177 -174.480916 -11.379560 3.037097 -13.649531 0.523715 10.488065 26.650007 -4.666335 15.071073 -4.000557 0.062400 1.611600 4.433400 -2.275589 7.943899 -6.003147 0.631851 -5.619958 10.612222 6.953184 -27.066423 11.245243 -0.843900 5.859600 -16.377500 -0.781177 3.597492 -3.054402 3.064241 2.336114 2.929965 3.584380 4.693959 -14.438747 -2.008600 0.526300 -4.513100 -76.722006 -8.113075 -8.081773 0.564858 -6.337121 -0.715834 -2.712406 -2.333474 25.830133 -7.125000 0.000000 0.000000 75.772069 4.852129 -1.965515 -4.557163 8.629414 -1.267110 -1.046906 -3.140207 27.614694 7.125000 0.000000 0.000000 
-25.957560 17.858298 3.889371 -179.307113 -0.536182 -174.498597 -11.450687 2.907526 -13.583204 0.522363 10.504668 26.686364 -4.712603 15.177929 -4.148820 0.068400 1.686700 4.640700 -2.342023 7.979989 -5.890289 0.655665 -5.532744 10.374768 6.919043 -26.951837 11.229328 -0.783800 5.652100 -15.778100 -0.785804 3.587328 -3.048678 3.071314 2.330602 2.926691 3.661591 4.640506 -14.407232 -2.001100 0.494100 -4.512800 -76.766115 -8.152412 -8.154545 0.544275 -6.295117 -0.713525 -2.714594 -2.329353 25.917611 -7.125000 0.000000 0.000000 75.741903 4.888087 -2.411756 -4.525692 8.589702 -1.263470 -1.150698 -3.094576 28.056390 7.125000 0.000000 0.000000 
-25.953548 17.857406 3.888703 -179.311558 -0.480759 -174.500371 -11.443587 2.790862 -13.527239 0.521519 10.515511 26.693915 -4.841930 15.488428 -4.200668 0.064400 1.637100 4.503800 -2.338766 8.004234 -5.803266 0.682090 -5.442822 10.130365 6.867228 -26.812496 11.261502 -0.733600 5.472000 -15.259700 -0.775593 3.543683 -3.038121 3.081677 2.310427 2.947120 3.625999 4.722644 -14.409122 -2.051700 0.524300 -4.539600 -76.773106 -8.105544 -8.309702 0.580041 -6.343255 -0.714701 -2.694114 -2.337548 26.006163 -7.125000 0.000000 0.000000 75.792550 4.849351 -2.178795 -4.553461 8.640919 -1.289991 -1.142528 -3.174475 27.750401 7.125000 0.000000 0.000000 
-25.948756 17.868439 3.886362 -179.204760 -0.387509 -174.486580 -11.299733 2.662743 -13.437666 0.518453 10.509564 26.678263 -4.828288 15.450422 -4.198744 0.094300 1.979900 5.450200 -2.211583 7.959603 -5.834341 0.689619 -5.427445 10.084543 6.810268 -26.732770 11.426718 -0.753100 5.542900 -15.463600 -0.737085 3.497924 -3.031226 3.153579 2.290791 3.001675 3.684683 4.685820 -14.386713 -2.019100 0.511500 -4.548400 -76.827528 -7.974513 -8.504185 0.671590 -6.483845 -0.722579 -2.678367 -2.346294 26.123728 -7.125000 0.000000 0.000000 75.626253 5.077080 -2.210729 -4.377720 8.359568 -1.208698 -0.946379 -3.139516 27.648717 7.125000 0.000000 0.000000 
-25.944298 17.875906 3.885805 -179.202351 -0.309273 -174.482587 -11.270750 2.500886 -13.353668 0.517684 10.518916 26.703680 -4.822634 15.432136 -4.284508 0.127700 2.303900 6.346400 -2.202926 8.074306 -5.778850 0.696700 -5.397884 9.978365 6.814807 -26.857266 11.614828 -0.772200 5.610900 -15.659600 -0.733515 3.428069 -3.033884 3.138542 2.257234 3.007237 3.874597 4.473121 -14.431245 -1.901000 0.411300 -4.582000 -76.760944 -7.808416 -8.731025 0.749847 -6.601252 -0.725021 -2.657973 -2.346293 26.234596 -7.125000 0.000000 0.000000 75.619227 5.117401 -2.377506 -4.342426 8.315236 -1.204998 -0.965118 -3.146253 28.021374 7.125000 0.000000 0.000000 
-25.940732 17.868328 3.887254 -179.330886 -0.255709 -174.461423 -11.394387 2.439914 -13.378317 0.522866 10.542560 26.762486 -4.853088 15.507649 -4.369458 0.134700 2.365300 6.516500 -2.342247 8.280268 -5.639836 0.708783 -5.329654 9.763240 6.859123 -27.064394 11.739812 -0.807000 5.733000 -16.011800 -0.731820 3.320528 -3.035637 3.151283 2.204803 2.986356 3.890918 4.490041 -14.396563 -1.908000 0.421600 -4.599300 -76.776859 -7.796155 -9.012317 0.734364 -6.554358 -0.717274 -2.643341 -2.332842 26.387567 -7.125000 0.000000 0.000000 75.685501 4.765984 -1.008001 -4.670753 8.781222 -1.261385 -0.926396 -3.075058 27.066310 7.125000 0.000000 0.000000 
-25.937166 17.864316 3.889148 -179.497166 -0.241226 -174.427050 -11.551612 2.575455 -13.503331 0.533428 10.559995 26.819185 -4.797293 15.381309 -4.344223 0.126000 2.288500 6.303700 -2.490177 8.361970 -5.587209 0.707674 -5.302787 9.682163 6.888470 -27.172548 11.793275 -0.855000 5.896800 -16.485200 -0.707464 3.232808 -3.037960 3.297819 2.159732 2.985034 3.930493 4.441101 -14.242305 -1.899600 0.412900 -4.539300 -76.950976 -7.898168 -9.209965 0.677103 -6.446031 -0.713842 -2.663095 -2.318546 26.554656 -7.125000 0.000000 0.000000 75.479774 4.803642 -1.225359 -4.656909 8.788532 -1.273580 -1.054103 -3.056166 27.203044 7.125000 0.000000 0.000000 
-25.932596 17.867882 3.891489 -179.573157 -0.270780 -174.401456 -11.595495 2.594704 -13.540884 0.529375 10.551658 26.800478 -4.760640 15.293659 -4.332331 0.134300 2.362400 6.508300 -2.534878 8.399259 -5.609866 0.696501 -5.329588 9.746719 6.914675 -27.288016 11.866577 -0.910300 6.079500 -17.015300 -0.715648 3.206326 -3.048088 3.298484 2.145250 2.939008 4.082786 4.298271 -14.075245 -1.852100 0.353900 -4.470200 -76.949651 -7.942995 -9.237287 0.637420 -6.380271 -0.713682 -2.691842 -2.308045 26.692762 -7.125000 0.000000 0.000000 75.525714 4.739937 -1.624935 -4.719782 8.872515 -1.295139 -1.131377 -3.035240 27.823977 7.125000 0.000000 0.000000 
-25.928250 17.861753 3.896281 -179.542027 -0.167918 -174.536177 -11.569845 2.655058 -13.418758 0.521785 10.541156 26.755761 -4.803050 15.396363 -4.364951 0.140800 2.418300 6.663100 -2.407518 8.111259 -5.643108 0.673357 -5.396698 9.918381 6.768291 -27.100371 12.318553 -1.119400 6.721000 -18.891400 -0.741675 3.254585 -3.038108 3.157694 2.169061 2.867851 4.283338 4.096292 -13.956158 -1.780400 0.260900 -4.429100 -76.812310 -7.947410 -9.256813 0.623699 -6.352376 -0.709235 -2.689053 -2.299280 26.936541 -7.125000 0.000000 0.000000 75.664224 4.714754 -1.781417 -4.709592 8.836209 -1.284301 -1.053895 -3.052170 27.287284 7.125000 0.000000 0.000000 
-25.933711 17.866433 3.906534 -179.596037 0.329737 -174.502966 -11.715554 2.594317 -13.439497 0.503011 10.515874 26.665280 -5.071332 16.038925 -4.479769 0.129400 2.318400 6.386500 -2.646847 8.646392 -5.849114 0.671332 -5.448279 10.148948 6.827145 -26.789395 11.590986 -0.829600 5.810900 -16.236700 -0.775093 3.428252 -3.072915 3.044621 2.309083 2.724813 4.388399 4.035838 -13.958045 -1.741100 0.232100 -4.460400 -76.734428 -7.845587 -9.407650 0.645673 -6.371170 -0.698713 -2.635203 -2.297844 27.308959 -7.125000 0.000000 0.000000 75.546577 4.953886 -2.960161 -4.456754 8.475622 -1.230940 -1.080655 -3.067165 28.107433 7.125000 0.000000 0.000000 
